<svg width="67" height="67" viewBox="0 0 67 67" fill="none" xmlns="http://www.w3.org/2000/svg">
<path d="M1.97314 37.5462L10.5261 29.1189L25.0881 26.5383L23.6487 34.1596L3.96221 40.2105L2.69025 39.6609L1.97314 37.5462Z" fill="#CA2C31"/>
<path d="M12.0075 31.2809L2.72168 39.7187L9.55254 43.0478L19.9218 37.7558V35.259L22.0418 29.5431L12.0075 31.2809ZM33.9814 46.1413L29.4955 48.0885L25.2609 57.0654C25.2609 57.0654 28.9878 65.32 29.1553 65.32C29.3228 65.32 31.4427 65.4875 31.4427 65.4875L38.9802 57.0602L40.8855 42.6657L33.9814 46.1413Z" fill="#A02422"/>
<path d="M29.5745 52.7834C29.5745 52.7834 32.0712 52.2756 33.8509 51.4277C35.6306 50.5797 37.8291 49.313 37.8291 49.313L37.023 56.3428L29.1452 65.3092C29.1452 65.3092 28.8364 64.9271 27.5278 62.0796C26.4862 59.8079 26.125 58.9966 26.125 58.9966L29.5745 52.7834Z" fill="#CA2C31"/>
<path d="M16.5307 42.2204C16.5307 42.2204 13.5262 41.9692 10.2337 46.1305C7.22921 49.9307 5.82117 56.1177 5.27679 57.709C4.73242 59.3002 3.42906 59.6247 3.86351 60.3523C4.29796 61.0799 6.1771 61.038 8.49593 60.7501C10.8148 60.4622 12.8038 59.7347 12.8038 59.7347C12.8038 59.7347 12.7044 59.9859 12.3694 60.5303C12.249 60.724 11.8302 61.0014 11.8616 61.2893C11.9349 61.975 17.8079 61.9907 22.4979 57.1646C27.5648 51.9564 25.1046 47.6851 25.1046 47.6851L16.5307 42.2204Z" fill="#F7D74D"/>
<path d="M17.4348 44.644C17.4348 44.644 14.1947 44.8168 11.5147 48.9781C8.83468 53.1394 7.5889 57.9603 7.84538 58.2848C8.09663 58.6094 13.0902 56.8035 14.2889 57.1647C15.1107 57.4159 14.6867 58.2482 14.9066 58.468C15.0898 58.6512 17.2568 58.9601 20.7638 55.1599C24.2761 51.3597 23.4438 46.0207 23.4438 46.0207L17.4348 44.644Z" fill="#FBF0B4"/>
<path d="M19.0277 38.965C19.0277 38.965 17.3999 40.4149 16.8188 41.2472C16.2378 42.0794 16.2378 42.1527 16.2745 42.404C16.3111 42.6552 16.9131 45.4137 19.4203 47.832C22.4981 50.7999 25.2462 51.1977 25.644 51.1977C26.0418 51.1977 28.6852 48.2298 28.6852 48.2298L19.0277 38.965Z" fill="#858585"/>
<path d="M26.2251 47.7584C26.2251 47.7584 28.8632 49.491 33.2863 48.0044C39.332 45.9735 43.7655 41.43 49.2563 35.6932C54.5535 30.1552 58.9975 23.2825 58.9975 23.2825L55.8831 12.8503L26.2251 47.7584Z" fill="#437687"/>
<path d="M35.5874 42.0476L36.315 39.7864L38.1365 40.0429C38.1365 40.0429 39.5237 40.6972 40.5444 41.1735C41.5651 41.6498 42.8789 42.011 42.8789 42.011L40.2879 44.199C40.2879 44.199 38.8746 43.665 37.8434 43.2149C36.6814 42.7072 35.5874 42.0476 35.5874 42.0476Z" fill="#3F545F"/>
<path d="M44.1372 8.44812C44.1372 8.44812 39.1018 11.3689 31.8836 18.1998C25.3772 24.3554 20.5564 29.9248 19.3891 34.6619C18.4155 38.6295 18.9337 41.0373 21.1479 43.6388C23.4876 46.3921 26.2304 47.7583 26.2304 47.7583C26.2304 47.7583 28.2928 47.7897 36.8981 41.1682C47.6338 32.9031 56.2339 19.0634 56.2339 19.0634L44.1372 8.44812Z" fill="#8DAFBF"/>
<path d="M54.5318 21.9006C54.5318 21.9006 50.1506 20.0319 47.0257 15.6716C43.9217 11.3428 44.1677 8.4168 44.1677 8.4168C44.1677 8.4168 46.7639 6.38063 52.6003 4.05133C56.5261 2.48625 61.8703 1.68539 63.6291 2.98875C65.3878 4.29211 62.4252 10.8298 62.4252 10.8298L57.0286 21.2777L54.5318 21.9006Z" fill="#D83F22"/>
<path d="M35.6825 42.0844C35.6825 42.0844 31.898 40.1529 29.4902 37.4049C24.9363 32.2176 23.9941 26.5226 23.9941 26.5226L26.2816 23.8374C26.2816 23.8374 26.8521 29.8883 31.7358 35.1175C34.9183 38.5251 38.2421 40.0849 38.2421 40.0849C38.2421 40.0849 37.5773 40.645 36.8655 41.1894C36.4101 41.5401 35.6825 42.0844 35.6825 42.0844Z" fill="#6896A5"/>
<path d="M58.9967 23.2826C58.9967 23.2826 61.2684 20.545 63.4197 14.3737C66.4242 5.76834 63.8071 3.16162 63.8071 3.16162C63.8071 3.16162 62.9224 7.2549 59.8499 12.9447C57.3845 17.5038 54.4009 21.8431 54.4009 21.8431C54.4009 21.8431 56.0445 22.5812 56.9343 22.8376C58.0545 23.1622 58.9967 23.2826 58.9967 23.2826Z" fill="#A02422"/>
<path d="M20.8385 36.4626C21.519 37.1117 22.5501 36.4312 23.2254 34.8399C23.9058 33.2487 23.8954 32.3589 23.3719 31.982C22.7229 31.5109 21.6341 32.5421 21.1578 33.4581C20.6344 34.4735 20.3255 35.9706 20.8385 36.4626ZM44.4665 10.5367C44.4665 10.5367 40.4831 13.3999 36.2328 17.2943C32.3332 20.8694 29.7474 23.6646 29.3915 24.3136C29.0146 25.0098 29.0094 25.9939 29.3025 26.4964C29.5956 26.9989 30.2447 27.2606 30.8362 26.8209C31.4276 26.376 35.6413 21.7174 39.4467 18.3883C42.9276 15.3419 45.6128 13.4104 45.6128 13.4104C45.6128 13.4104 46.7015 11.4842 46.5236 11.0445C46.3456 10.5996 44.4665 10.5367 44.4665 10.5367Z" fill="#B3E1EE"/>
<path d="M44.4658 10.5366C44.4658 10.5366 47.4075 8.28058 50.611 6.69456C53.5893 5.21847 56.552 3.98839 57.0859 5.0562C57.5936 6.07167 54.275 7.45354 51.3543 9.31698C48.4335 11.1804 45.6226 13.405 45.6226 13.405C45.6226 13.405 45.1934 12.6199 44.916 11.8923C44.7403 11.4493 44.59 10.9967 44.4658 10.5366Z" fill="#ED6A65"/>
<path d="M46.8954 20.545C43.9798 17.8597 39.9232 18.5821 37.9237 20.9689C35.8718 23.4291 36.0236 27.1874 38.4471 29.4486C40.6508 31.5005 44.7493 31.9664 47.2199 29.0875C49.4184 26.5331 49.2823 22.7382 46.8954 20.545Z" fill="#E1E1E1"/>
<path d="M39.4306 21.9165C37.6981 23.6177 37.7923 26.9886 39.8546 28.5276C41.6552 29.8728 44.2096 29.8047 45.8113 28.1664C47.4131 26.528 47.4131 23.5497 45.9108 22.0108C44.1834 20.2468 41.4145 19.9694 39.4306 21.9165Z" fill="#3F545F"/>
<path d="M26.1725 40.247C26.1725 40.247 29.4126 36.9598 29.7685 37.3158C30.1244 37.6717 30.0773 39.666 28.528 41.8854C26.9734 44.1048 23.5553 48.0567 20.8491 50.721C18.1796 53.3434 14.4161 56.3427 14.0602 56.2904C13.7827 56.2485 12.6573 55.6884 12.2072 55.1441C11.7675 54.6049 13.0813 52.0558 13.61 51.213C14.1439 50.3703 26.1725 40.247 26.1725 40.247Z" fill="#A02524"/>
<path d="M11.112 53.3119C11.0701 54.0657 12.2216 55.1649 12.2216 55.1649L29.7673 37.3209C29.7673 37.3209 28.9455 36.3944 26.5272 37.8967C24.088 39.4147 21.9523 41.2362 18.8013 44.2879C14.4096 48.5486 11.1538 52.5582 11.112 53.3119Z" fill="#CA2C31"/>
<path d="M9.97649 19.341C9.39548 19.922 9.36931 20.8537 10.0184 21.3876C10.5941 21.864 11.5311 21.5551 11.8818 21.1259C12.2325 20.6967 12.1906 19.765 11.7248 19.3043C11.2589 18.8385 10.3324 18.9903 9.97649 19.341Z" fill="white"/>
<path opacity="0.5" d="M21.4711 18.6605C21.0314 19.1473 21.1727 19.8696 21.581 20.1366C21.9893 20.4035 22.6017 20.3774 22.9 20.011C23.167 19.6812 23.1984 19.0217 22.7901 18.6134C22.4342 18.2627 21.7537 18.3464 21.4711 18.6605Z" fill="white"/>
<path d="M29.0765 6.2239C29.0765 6.2239 29.7151 4.40234 30.0919 4.3814C30.474 4.36047 31.0236 6.20297 31.0236 6.20297C31.0236 6.20297 32.9133 6.2239 33.0389 6.50132C33.2011 6.85726 31.8297 8.0507 31.8297 8.0507C31.8297 8.0507 32.2747 9.83039 32.0653 10.045C31.8297 10.2805 30.2018 9.34359 30.2018 9.34359C30.2018 9.34359 28.5268 10.5109 28.1657 10.1916C27.8516 9.91414 28.5059 8.02976 28.5059 8.02976C28.5059 8.02976 26.9356 6.88343 27.0193 6.56414C27.1397 6.11398 29.0765 6.2239 29.0765 6.2239ZM50.7782 49.8995C51.4115 50.2502 52.2072 50.0513 52.5003 49.3761C52.7672 48.7741 52.2752 48.057 51.8303 47.8634C51.3854 47.6697 50.6054 47.9262 50.3228 48.4339C50.0454 48.9364 50.3961 49.6902 50.7782 49.8995ZM59.7708 34.4634C59.4097 33.9033 58.6297 33.7201 58.122 34.1702C57.63 34.6099 57.7504 35.3009 58.0278 35.6516C58.3052 36.0023 59.0485 36.1331 59.4986 35.8452C59.9488 35.5573 59.9907 34.7984 59.7708 34.4634Z" fill="white"/>
</svg>
